# xmcd
#
# Track frame offsets: 
#        150
#        26265
#        47812
#        69765
#        89014
#        105908
#        126427
#        145821
#
# Disc length: 2182 seconds
#
# Revision: 1
# Processed by: cddbd v1.5.2PL0 Copyright (c) Steve Scherf et al.
# Submitted via: ExactAudioCopyFreeDBPlugin 1.0
#
DISCID=64088408
DTITLE=Breakwater - Breakwater (2009 Remastered)
DYEAR=1978
DGENRE=Funk
TTITLE0=Work It Out
TTITLE1=You Know I Love You
TTITLE2=Unnecessary Business
TTITLE3=No Limit
TTITLE4=That's Not What We Came Here For
TTITLE5=Feel Your Way
TTITLE6=Do It Till The Fluid Gets Hot
TTITLE7=Free Yourserlf
EXTD=
EXTT0=
EXTT1=
EXTT2=
EXTT3=
EXTT4=
EXTT5=
EXTT6=
EXTT7=
PLAYORDER=
